<svg xmlns="http://www.w3.org/2000/svg" width="19.188" height="18.316" viewBox="0 0 19.188 18.316"><defs><style>.a{fill:none;}</style></defs><g transform="translate(0 0)"><rect class="a" width="19.188" height="18.316"/></g><g transform="translate(2.215 1.742)"><path d="M9.5,2a7.527,7.527,0,1,0,7.513,7.527A7.513,7.513,0,0,0,9.5,2ZM6.879,6.516A1.129,1.129,0,1,1,5.753,7.646,1.126,1.126,0,0,1,6.879,6.516Zm2.627,7.527a4.1,4.1,0,0,1-3.753-3.011h7.506A4.1,4.1,0,0,1,9.506,14.044Zm2.627-5.269a1.129,1.129,0,1,1,1.126-1.129A1.126,1.126,0,0,1,12.132,8.775Z" transform="translate(-2 -2)"/></g></svg>