<svg xmlns="http://www.w3.org/2000/svg" width="34.634" height="34.634" viewBox="0 0 34.634 34.634"><defs><style>.a{fill:none;}</style></defs><g transform="matrix(1, -0.017, 0.017, 1, 0, 0.594)"><path d="M22.248,1.5A2.1,2.1,0,0,0,20.263,0H4.891A2.114,2.114,0,0,0,2.907,1.5L0,10.373V22.227a1.446,1.446,0,0,0,1.4,1.482h1.4a1.446,1.446,0,0,0,1.4-1.482V20.745h16.77v1.482a1.446,1.446,0,0,0,1.4,1.482h1.4a1.446,1.446,0,0,0,1.4-1.482V10.373ZM4.891,16.3a2.226,2.226,0,0,1,0-4.445,2.226,2.226,0,0,1,0,4.445Zm15.372,0a2.226,2.226,0,1,1,2.1-2.223A2.159,2.159,0,0,1,20.263,16.3ZM2.795,8.891l2.1-6.668H20.263l2.1,6.668Z" transform="translate(4.445 5.891)"/><path class="a" d="M0,0H34.045V34.045H0Z" transform="translate(0)"/></g></svg>