<svg xmlns="http://www.w3.org/2000/svg" width="385.47" height="175.974" viewBox="0 0 385.47 175.974"><defs><style>.a{fill:#fd0;}.b{fill:#fff;}.c{fill:#060506;}</style></defs><g transform="translate(-378 585)"><path d="M1099.391,1435.683c-7.351,1.034-36.036,5.935-53.591,30.676-9.446,13.313-11.483,26.471-12.935,35.85-1.433,9.252-5.606,39.2,12.566,68.375,4.247,6.819,14.94,23.5,35.85,33.263,31.935,14.908,63.853,2.536,82.789-4.8a151.435,151.435,0,0,0,49.156-33.633c6.323-6.621,11.138-13.1,14.045-21.806,1.669-5,4.888-15.109,1.108-26.981a40.206,40.206,0,0,0-14.044-19.588c-8.642-4.44-15.577-6.871-23.654-7.761-21.891-2.415-34.973-13.918-44.721-27.72-6.44-9.118-4.467-12.77-10.718-18.48C1125.273,1433.97,1110.3,1434.165,1099.391,1435.683Z" transform="translate(-653.42 -2019.889)"/><path class="a" d="M1229.28,1436.575a23.387,23.387,0,0,0-15.342,17.505c-.389,2.032-1.419,7.4,1.574,12.589,4.3,7.445,13.312,8.3,14.948,8.457,9.462.9,15.946-4.99,16.915-5.9a22.508,22.508,0,0,0,6.688-12.784c.406-2.441,1.654-9.93-2.95-15.539C1245.684,1434.289,1235.571,1434.492,1229.28,1436.575Z" transform="translate(-653.42 -2019.889)"/><g transform="translate(-653.42 -2019.889)"><path class="b" d="M1141.268,1474.307v22.022h-33.286v85.034h-27.191v-85.034l-33.279.008,0-22.03Zm-65.894,22.022,94.914,0"/><path class="b" d="M1195.013,1506.064l-.041,35.048c-.009,22.226-16.4,40.24-38.629,40.24s-38.593-18.014-38.6-40.24l-.006-35.052h23.415v35.052c.008,9.3,5.893,16.83,15.192,16.83s15.211-7.533,15.219-16.83l.04-35.048Z"/></g><g transform="translate(-653.42 -2019.889)"><path class="c" d="M1268.7,1525.868a15.092,15.092,0,0,0-8.052-2.2h-19.032a3.2,3.2,0,0,0-3.254,3.253v50.346a3.46,3.46,0,0,0,.854,2.359,2.923,2.923,0,0,0,2.319.976,2.954,2.954,0,0,0,2.277-.976,3.367,3.367,0,0,0,.894-2.359v-19.52h15.942a14.672,14.672,0,0,0,8.052-2.278,16.147,16.147,0,0,0,5.653-6.18,18.253,18.253,0,0,0,2.074-8.7,17.959,17.959,0,0,0-2.074-8.7A15.7,15.7,0,0,0,1268.7,1525.868Zm-.081,20.171a10.352,10.352,0,0,1-3.253,3.985,7.86,7.86,0,0,1-4.718,1.464H1244.7v-21.554h15.942a8.03,8.03,0,0,1,4.718,1.424,10.31,10.31,0,0,1,3.253,3.782,11.7,11.7,0,0,1,1.22,5.449A12.345,12.345,0,0,1,1268.617,1546.039Z"/><path class="c" d="M1317.5,1538.149a3.2,3.2,0,0,0-3.254,3.254v3.178a15.463,15.463,0,0,0-2.562-2.853,17.107,17.107,0,0,0-5.246-3.091,18.269,18.269,0,0,0-6.507-1.138,17.686,17.686,0,0,0-9.8,2.806,19.919,19.919,0,0,0-6.914,7.727,24.222,24.222,0,0,0-2.562,11.346,24.587,24.587,0,0,0,2.522,11.3,19.92,19.92,0,0,0,6.954,7.849,17.843,17.843,0,0,0,9.963,2.888,16.022,16.022,0,0,0,6.182-1.18,18.076,18.076,0,0,0,4.961-3.009,15.818,15.818,0,0,0,3.009-3.437v3.477a3.282,3.282,0,0,0,.935,2.359,3.242,3.242,0,0,0,4.637,0,3.291,3.291,0,0,0,.935-2.359V1541.4a3.226,3.226,0,0,0-.9-2.318A3.12,3.12,0,0,0,1317.5,1538.149Zm-9.557,35.137a12.552,12.552,0,0,1-7.2,2.115,12.408,12.408,0,0,1-7.117-2.115,14.515,14.515,0,0,1-4.921-5.734,19.661,19.661,0,0,1,0-16.389,13.992,13.992,0,0,1,4.921-5.613,13.5,13.5,0,0,1,14.315.041,14.248,14.248,0,0,1,4.921,5.694,19.384,19.384,0,0,1,0,16.267A14.539,14.539,0,0,1,1307.943,1573.286Z"/><path class="c" d="M1365.974,1538.149a3.2,3.2,0,0,0-3.253,3.254v3.7a17.139,17.139,0,0,0-3.131-3.372,18.808,18.808,0,0,0-5.246-3.05,17.934,17.934,0,0,0-6.588-1.179,18.58,18.58,0,0,0-10.086,2.806,20.106,20.106,0,0,0-7.116,7.767,25.667,25.667,0,0,0,0,22.692,20.311,20.311,0,0,0,7.157,7.809,18.728,18.728,0,0,0,10.207,2.847,17.248,17.248,0,0,0,5.328-.855,17.957,17.957,0,0,0,4.8-2.358,15.757,15.757,0,0,0,3.62-3.457,11.291,11.291,0,0,0,1.057-1.725v4.653a12.844,12.844,0,0,1-3.66,9.557q-3.66,3.618-10.573,3.619a18.53,18.53,0,0,1-3.986-.447,27.652,27.652,0,0,1-3.578-1.017q-1.547-.57-2.359-.813a8.158,8.158,0,0,0-2.928-.732,2.353,2.353,0,0,0-1.952,1.139,2.265,2.265,0,0,0-.285,1.911,3.384,3.384,0,0,0,1.505,1.83,5.846,5.846,0,0,0,2.846,1.911,31.8,31.8,0,0,0,5.246,1.586,25.452,25.452,0,0,0,5.41.651,24.558,24.558,0,0,0,10.491-2.2,17.538,17.538,0,0,0,7.524-6.589,20.173,20.173,0,0,0,2.806-11.061V1541.4a3.222,3.222,0,0,0-.9-2.318A3.12,3.12,0,0,0,1365.974,1538.149Zm-4.717,29.524a14.565,14.565,0,0,1-5.124,5.654,13.618,13.618,0,0,1-7.483,2.074,13.413,13.413,0,0,1-7.483-2.115,14.785,14.785,0,0,1-5.124-5.734,18.709,18.709,0,0,1,0-16.307,14.559,14.559,0,0,1,5.124-5.654,13.624,13.624,0,0,1,7.483-2.074,13.838,13.838,0,0,1,7.483,2.033,14.281,14.281,0,0,1,5.124,5.613,17.659,17.659,0,0,1,1.871,8.3A17.469,17.469,0,0,1,1361.257,1567.673Z"/><path class="c" d="M1414.125,1548.154a21.193,21.193,0,0,0-29-7.809,20.942,20.942,0,0,0-7.564,7.809,24.177,24.177,0,0,0,0,22.61,20.92,20.92,0,0,0,7.564,7.809,20.85,20.85,0,0,0,29-7.809,24.493,24.493,0,0,0,0-22.61Zm-5.653,19.519a14.746,14.746,0,0,1-5.205,5.654,14.317,14.317,0,0,1-14.844,0,14.642,14.642,0,0,1-5.246-5.654,17.165,17.165,0,0,1-1.911-8.214,17.351,17.351,0,0,1,1.911-8.3,14.361,14.361,0,0,1,5.246-5.613,14.564,14.564,0,0,1,14.844,0,14.46,14.46,0,0,1,5.205,5.613,17.353,17.353,0,0,1,1.912,8.3A17.167,17.167,0,0,1,1408.472,1567.673Z"/></g><path class="c" d="M1266.516,1439.2a2.423,2.423,0,0,0-.811,4.778c9.475,1.549,16.658,8.935,16.658,20.35,0,12.092-8.06,20.2-18.367,21.166v-3.885c.213-.056.429-.107.637-.173a11.243,11.243,0,0,0,3.674-1.93,8.9,8.9,0,0,0,2.515-3.221,10.163,10.163,0,0,0,.884-4.305,9.217,9.217,0,0,0-2.762-6.9c-1.774-1.714-4.465-2.842-8-3.35a13.722,13.722,0,0,1-4.028-1.089,4.458,4.458,0,0,1-1.852-1.487,3.3,3.3,0,0,1-.519-1.808,3.17,3.17,0,0,1,1.367-2.838,5.545,5.545,0,0,1,1.573-.737v3.516a2.254,2.254,0,1,0,4.508,0v-3.677a5.955,5.955,0,0,1,.831.233,5.377,5.377,0,0,1,1.753,1.039,7.736,7.736,0,0,1,1.261,1.453,2.876,2.876,0,0,0,3.7,1.139l.09-.047a2.6,2.6,0,0,0,1.278-1.7,2.784,2.784,0,0,0-.408-2.148,11.727,11.727,0,0,0-2.4-2.755,11.982,11.982,0,0,0-3.448-2.024,11.274,11.274,0,0,0-2.654-.665V1441.6a2.254,2.254,0,0,0-2.062-2.245,1.525,1.525,0,0,0-.642-.171c-.262-.009-.514-.015-.714-.015-14.008,0-25.3,10.077-25.3,25.9,0,14.042,8.892,23.236,20.685,25.128a2.429,2.429,0,0,0,2.813-2.388h0a2.406,2.406,0,0,0-2-2.39c-9.475-1.549-16.658-8.935-16.658-20.35,0-12.481,8.587-20.716,19.368-21.236v4.435a12.772,12.772,0,0,0-2.881.835,9.509,9.509,0,0,0-4.041,3.151,8.185,8.185,0,0,0-1.515,4.9,8.491,8.491,0,0,0,3.017,6.581,14.154,14.154,0,0,0,7.882,3.159,8.375,8.375,0,0,1,4.855,1.868,4.378,4.378,0,0,1,1.405,3.263,4.225,4.225,0,0,1-.7,2.509,4.393,4.393,0,0,1-1.509,1.332v-4.358a2.254,2.254,0,1,0-4.508,0v5.18a9.906,9.906,0,0,1-2.333-.412,7.125,7.125,0,0,1-2.325-1.191,5.138,5.138,0,0,1-1.4-1.638,3.049,3.049,0,0,0-1.343-1.37,2.665,2.665,0,0,0-1.98-.21,2.764,2.764,0,0,0-1.75,1.317,2.391,2.391,0,0,0-.02,2.28,10.4,10.4,0,0,0,2.724,3.533,12.539,12.539,0,0,0,4.129,2.3,15.43,15.43,0,0,0,4.3.777v5.945a2.24,2.24,0,0,0,.31,1.137,1.517,1.517,0,0,0,1.393,1.063l.072,0a2.3,2.3,0,0,0,.479.052,2.25,2.25,0,0,0,.453-.046c13.873-.138,25.005-10.18,25.005-25.892C1287.2,1450.291,1278.308,1441.1,1266.516,1439.2Z" transform="translate(-653.42 -2019.889)"/></g></svg>