<svg xmlns="http://www.w3.org/2000/svg" width="27.891" height="34" viewBox="0 0 27.891 34"><path d="M4.98,34H22.91a4.986,4.986,0,0,0,4.98-4.98V4.98A4.986,4.986,0,0,0,22.91,0H4.98A4.986,4.986,0,0,0,0,4.98V29.02A4.986,4.986,0,0,0,4.98,34ZM25.9,4.98V29.02a2.992,2.992,0,0,1-2.988,2.988h0a4.954,4.954,0,0,0,1-2.988V4.98a4.954,4.954,0,0,0-1-2.988h0A2.992,2.992,0,0,1,25.9,4.98Zm-23.906,0A2.992,2.992,0,0,1,4.98,1.992H18.926A2.992,2.992,0,0,1,21.914,4.98V29.02a2.992,2.992,0,0,1-2.988,2.988H4.98A2.992,2.992,0,0,1,1.992,29.02Zm0,0"/><path d="M67.969,105.938A7.969,7.969,0,1,0,60,97.969,7.978,7.978,0,0,0,67.969,105.938Zm-5.893-6.973h1.938a13.441,13.441,0,0,0,.833,4.1A5.99,5.99,0,0,1,62.076,98.965Zm5.893-6.973c.637,0,1.757,1.867,1.96,4.98H66.008c.2-3.114,1.323-4.98,1.96-4.98Zm1.96,6.973c-.2,3.114-1.323,4.98-1.96,4.98s-1.757-1.867-1.96-4.98Zm1.162,4.1a13.446,13.446,0,0,0,.833-4.1h1.938A5.991,5.991,0,0,1,71.091,103.063Zm2.771-6.09H71.924a13.441,13.441,0,0,0-.833-4.1A5.99,5.99,0,0,1,73.862,96.973Zm-9.015-4.1a13.441,13.441,0,0,0-.833,4.1H62.076A5.99,5.99,0,0,1,64.847,92.874Zm0,0" transform="translate(-56.016 -84.023)"/><path d="M100.957,362H91a1,1,0,0,0,0,1.992h9.961a1,1,0,0,0,0-1.992Zm0,0" transform="translate(-84.023 -337.961)"/><path d="M126.973,422H121a1,1,0,0,0,0,1.992h5.977a1,1,0,0,0,0-1.992Zm0,0" transform="translate(-112.031 -393.977)"/></svg>